<?xml version="1.0" encoding="UTF-8" standalone="no"?>
<!DOCTYPE svg PUBLIC "-//W3C//DTD SVG 1.1//EN"
 "http://www.w3.org/Graphics/SVG/1.1/DTD/svg11.dtd">
<!-- Generated by graphviz version 2.50.0 (20211204.2007)
 -->
<!-- Title: G Pages: 1 -->
<svg width="401pt" height="127pt"
 viewBox="0.00 0.00 401.20 127.20" xmlns="http://www.w3.org/2000/svg" xmlns:xlink="http://www.w3.org/1999/xlink">
<g id="graph0" class="graph" transform="scale(1 1) rotate(0) translate(21.6 105.6)">
<title>G</title>
<polygon fill="#111111" stroke="transparent" points="-21.6,21.6 -21.6,-105.6 379.6,-105.6 379.6,21.6 -21.6,21.6"/>
<!-- App.vue -->
<g id="node1" class="node">
<title>App.vue</title>
<path fill="none" stroke="#cfffac" d="M176.33,-84C176.33,-84 122.67,-84 122.67,-84 118.83,-84 115,-80.17 115,-76.33 115,-76.33 115,-68.67 115,-68.67 115,-64.83 118.83,-61 122.67,-61 122.67,-61 176.33,-61 176.33,-61 180.17,-61 184,-64.83 184,-68.67 184,-68.67 184,-76.33 184,-76.33 184,-80.17 180.17,-84 176.33,-84"/>
<text text-anchor="middle" x="149.5" y="-68.8" font-family="Arial" font-size="14.00" fill="#cfffac">App.vue</text>
</g>
<!-- main.js -->
<g id="node2" class="node">
<title>main.js</title>
<path fill="none" stroke="#c6c5fe" d="M53.33,-63C53.33,-63 7.67,-63 7.67,-63 3.83,-63 0,-59.17 0,-55.33 0,-55.33 0,-47.67 0,-47.67 0,-43.83 3.83,-40 7.67,-40 7.67,-40 53.33,-40 53.33,-40 57.17,-40 61,-43.83 61,-47.67 61,-47.67 61,-55.33 61,-55.33 61,-59.17 57.17,-63 53.33,-63"/>
<text text-anchor="middle" x="30.5" y="-47.8" font-family="Arial" font-size="14.00" fill="#c6c5fe">main.js</text>
</g>
<!-- main.js&#45;&gt;App.vue -->
<g id="edge1" class="edge">
<title>main.js&#45;&gt;App.vue</title>
<path fill="none" stroke="#757575" d="M61.02,-56.8C74.33,-59.19 90.32,-62.06 104.97,-64.69"/>
<polygon fill="#757575" stroke="#757575" points="104.38,-68.14 114.85,-66.46 105.62,-61.25 104.38,-68.14"/>
</g>
<!-- router/index.js -->
<g id="node3" class="node">
<title>router/index.js</title>
<path fill="none" stroke="#c6c5fe" d="M194.33,-43C194.33,-43 104.67,-43 104.67,-43 100.83,-43 97,-39.17 97,-35.33 97,-35.33 97,-27.67 97,-27.67 97,-23.83 100.83,-20 104.67,-20 104.67,-20 194.33,-20 194.33,-20 198.17,-20 202,-23.83 202,-27.67 202,-27.67 202,-35.33 202,-35.33 202,-39.17 198.17,-43 194.33,-43"/>
<text text-anchor="middle" x="149.5" y="-27.8" font-family="Arial" font-size="14.00" fill="#c6c5fe">router/index.js</text>
</g>
<!-- main.js&#45;&gt;router/index.js -->
<g id="edge2" class="edge">
<title>main.js&#45;&gt;router/index.js</title>
<path fill="none" stroke="#757575" d="M61.02,-46.45C68.89,-45.11 77.7,-43.6 86.61,-42.08"/>
<polygon fill="#757575" stroke="#757575" points="87.4,-45.49 96.67,-40.36 86.22,-38.59 87.4,-45.49"/>
</g>
<!-- views/Home.vue -->
<g id="node4" class="node">
<title>views/Home.vue</title>
<path fill="none" stroke="#cfffac" d="M350.33,-64C350.33,-64 245.67,-64 245.67,-64 241.83,-64 238,-60.17 238,-56.33 238,-56.33 238,-48.67 238,-48.67 238,-44.83 241.83,-41 245.67,-41 245.67,-41 350.33,-41 350.33,-41 354.17,-41 358,-44.83 358,-48.67 358,-48.67 358,-56.33 358,-56.33 358,-60.17 354.17,-64 350.33,-64"/>
<text text-anchor="middle" x="298" y="-48.8" font-family="Arial" font-size="14.00" fill="#cfffac">views/Home.vue</text>
</g>
<!-- router/index.js&#45;&gt;views/Home.vue -->
<g id="edge3" class="edge">
<title>router/index.js&#45;&gt;views/Home.vue</title>
<path fill="none" stroke="#757575" d="M202.15,-38.9C210.44,-40.09 219.13,-41.34 227.76,-42.57"/>
<polygon fill="#757575" stroke="#757575" points="227.42,-46.06 237.81,-44.02 228.41,-39.13 227.42,-46.06"/>
</g>
<!-- views/a.vue -->
<g id="node5" class="node">
<title>views/a.vue</title>
<path fill="none" stroke="#cfffac" d="M334.83,-23C334.83,-23 261.17,-23 261.17,-23 257.33,-23 253.5,-19.17 253.5,-15.33 253.5,-15.33 253.5,-7.67 253.5,-7.67 253.5,-3.83 257.33,0 261.17,0 261.17,0 334.83,0 334.83,0 338.67,0 342.5,-3.83 342.5,-7.67 342.5,-7.67 342.5,-15.33 342.5,-15.33 342.5,-19.17 338.67,-23 334.83,-23"/>
<text text-anchor="middle" x="298" y="-7.8" font-family="Arial" font-size="14.00" fill="#cfffac">views/a.vue</text>
</g>
<!-- router/index.js&#45;&gt;views/a.vue -->
<g id="edge4" class="edge">
<title>router/index.js&#45;&gt;views/a.vue</title>
<path fill="none" stroke="#757575" d="M202.15,-24.45C215.41,-22.64 229.71,-20.69 243.08,-18.86"/>
<polygon fill="#757575" stroke="#757575" points="243.66,-22.31 253.09,-17.49 242.71,-15.38 243.66,-22.31"/>
</g>
</g>
</svg>
